<svg width="253" height="52" viewBox="0 0 253 52" fill="none" xmlns="http://www.w3.org/2000/svg">
<path d="M22.6468 9.69485C23.5449 6.93092 27.4551 6.93092 28.3532 9.69485L30.5516 16.4608C30.9532 17.6969 32.1051 18.5338 33.4047 18.5338L40.5189 18.5338C43.4251 18.5338 44.6334 22.2526 42.2822 23.9608L36.5268 28.1424C35.4753 28.9063 35.0353 30.2604 35.437 31.4965L37.6354 38.2625C38.5334 41.0264 35.37 43.3248 33.0188 41.6166L27.2634 37.435C26.2119 36.6711 24.7881 36.6711 23.7366 37.435L17.9812 41.6166C15.63 43.3248 12.4666 41.0264 13.3646 38.2625L15.563 31.4965C15.9647 30.2604 15.5247 28.9063 14.4732 28.1424L8.71775 23.9608C6.36661 22.2526 7.57494 18.5338 10.4811 18.5338L17.5953 18.5338C18.8949 18.5338 20.0468 17.6969 20.4484 16.4608L22.6468 9.69485Z" fill="#FFC226"/>
<path d="M123.647 9.69485C124.545 6.93092 128.455 6.93092 129.353 9.69485L131.552 16.4608C131.953 17.6969 133.105 18.5338 134.405 18.5338L141.519 18.5338C144.425 18.5338 145.633 22.2526 143.282 23.9608L137.527 28.1424C136.475 28.9063 136.035 30.2604 136.437 31.4965L138.635 38.2625C139.533 41.0264 136.37 43.3248 134.019 41.6166L128.263 37.435C127.212 36.6711 125.788 36.6711 124.737 37.435L118.981 41.6166C116.63 43.3248 113.467 41.0264 114.365 38.2625L116.563 31.4965C116.965 30.2604 116.525 28.9063 115.473 28.1424L109.718 23.9608C107.367 22.2526 108.575 18.5338 111.481 18.5338L118.595 18.5338C119.895 18.5338 121.047 17.6969 121.448 16.4608L123.647 9.69485Z" fill="#FFC226"/>
<path d="M225.122 9.84936C225.871 7.54608 229.129 7.54608 229.878 9.84936L232.076 16.6153C232.545 18.0574 233.888 19.0338 235.405 19.0338L242.519 19.0338C244.941 19.0338 245.948 22.1328 243.988 23.5563L238.233 27.7379C237.006 28.6292 236.493 30.2089 236.961 31.651L239.16 38.417C239.908 40.7203 237.272 42.6356 235.313 41.2121L229.557 37.0305C228.331 36.1392 226.669 36.1392 225.443 37.0305L219.687 41.2121C217.728 42.6356 215.092 40.7203 215.84 38.417L218.039 31.651C218.507 30.2089 217.994 28.6292 216.767 27.7379L211.012 23.5563C209.052 22.1328 210.059 19.0338 212.481 19.0338L219.595 19.0338C221.112 19.0338 222.455 18.0574 222.924 16.6153L225.122 9.84936Z" stroke="#FFC226"/>
<path d="M73.1415 9.88712C74.029 7.10121 77.971 7.10121 78.8585 9.88712L80.9473 16.4443C81.3437 17.6888 82.4997 18.5338 83.8057 18.5338H90.6896C93.5814 18.5338 94.7991 22.2223 92.4758 23.9441L86.8051 28.1465C85.7744 28.9103 85.3434 30.245 85.7328 31.4673L87.8746 38.1909C88.7584 40.9653 85.5693 43.2454 83.2299 41.5117L77.7862 37.4775C76.7252 36.6913 75.2748 36.6913 74.2138 37.4775L68.7701 41.5117C66.4307 43.2454 63.2416 40.9653 64.1254 38.1909L66.2672 31.4673C66.6566 30.245 66.2256 28.9103 65.1949 28.1465L59.5242 23.9441C57.2009 22.2223 58.4186 18.5338 61.3104 18.5338H68.1943C69.5003 18.5338 70.6563 17.6888 71.0527 16.4443L73.1415 9.88712Z" fill="#FFC226"/>
<path d="M174.142 9.88712C175.029 7.10121 178.971 7.10121 179.858 9.88712L181.947 16.4443C182.344 17.6888 183.5 18.5338 184.806 18.5338H191.69C194.581 18.5338 195.799 22.2223 193.476 23.9441L187.805 28.1465C186.774 28.9103 186.343 30.245 186.733 31.4673L188.875 38.1909C189.758 40.9653 186.569 43.2454 184.23 41.5117L178.786 37.4775C177.725 36.6913 176.275 36.6913 175.214 37.4775L169.77 41.5117C167.431 43.2454 164.242 40.9653 165.125 38.1909L167.267 31.4673C167.657 30.245 167.226 28.9103 166.195 28.1465L160.524 23.9441C158.201 22.2223 159.419 18.5338 162.31 18.5338H169.194C170.5 18.5338 171.656 17.6888 172.053 16.4443L174.142 9.88712Z" fill="#FFC226"/>
<mask id="mask0_1_2638" style="mask-type:alpha" maskUnits="userSpaceOnUse" x="209" y="7" width="37" height="36">
<path d="M224.647 9.69485C225.545 6.93092 229.455 6.93092 230.353 9.69485L232.552 16.4608C232.953 17.6969 234.105 18.5338 235.405 18.5338L242.519 18.5338C245.425 18.5338 246.633 22.2526 244.282 23.9608L238.527 28.1424C237.475 28.9063 237.035 30.2604 237.437 31.4965L239.635 38.2625C240.533 41.0264 237.37 43.3248 235.019 41.6166L229.263 37.435C228.212 36.6711 226.788 36.6711 225.737 37.435L219.981 41.6166C217.63 43.3248 214.467 41.0264 215.365 38.2625L217.563 31.4965C217.965 30.2604 217.525 28.9063 216.473 28.1424L210.718 23.9608C208.367 22.2526 209.575 18.5338 212.481 18.5338L219.595 18.5338C220.895 18.5338 222.047 17.6969 222.448 16.4608L224.647 9.69485Z" fill="#FFC226"/>
</mask>
<g mask="url(#mask0_1_2638)">
<rect x="207" y="1.9137" width="20" height="46" fill="#FFC226"/>
</g>
</svg>
