<svg width="67" height="65" viewBox="0 0 67 65" fill="none" xmlns="http://www.w3.org/2000/svg">
<path d="M0 15.5012C0 7.21695 6.71573 0.501221 15 0.501221H52C60.2843 0.501221 67 7.21695 67 15.5012V49.5012C67 57.7855 60.2843 64.5012 52 64.5012H15C6.71573 64.5012 0 57.7855 0 49.5012V15.5012Z" fill="white"/>
<path d="M27.0288 42.1178V36.0241C27.0288 34.7386 25.9677 33.6946 24.657 33.6946C23.3482 33.6946 22.2852 34.7367 22.2852 36.0241V45.6503C22.2852 45.6503 22.6748 50.6254 28.5234 53.8086C33.7785 56.668 38.8897 55.0803 38.8897 55.0803C38.8897 55.0803 45.4656 53.524 45.9991 47.3891V37.7629C45.9991 36.4775 44.9381 35.4334 43.6273 35.4334C42.3186 35.4334 41.2555 36.4755 41.2555 37.7629V36.0064" stroke="#C7C7C7" stroke-width="2" stroke-miterlimit="10"/>
<path d="M27.0283 42.2237V24.4058C27.0283 22.8496 28.0893 21.5876 29.4001 21.5876C30.7089 21.5876 31.7719 22.8496 31.7719 24.4058V36.8306" stroke="#C7C7C7" stroke-width="2" stroke-miterlimit="10" stroke-linecap="round"/>
<path d="M31.7725 34.4364V30.3563C31.7725 28.8 32.8335 27.5381 34.1443 27.5381C35.453 27.5381 36.5161 28.8 36.5161 30.3563V39.9119" stroke="#C7C7C7" stroke-width="2" stroke-miterlimit="10" stroke-linecap="round"/>
<path d="M36.5156 33.151V32.9959C36.5156 31.4396 37.5766 30.1777 38.8874 30.1777C40.1962 30.1777 41.2592 31.4396 41.2592 32.9959V43.4818" stroke="#C7C7C7" stroke-width="2" stroke-miterlimit="10" stroke-linecap="round"/>
<path d="M19 22.7162C19 17.0739 23.6557 12.5012 29.4003 12.5012C35.145 12.5012 39.8007 17.0739 39.8007 22.7162" stroke="#C7C7C7" stroke-width="2" stroke-miterlimit="10" stroke-linecap="round"/>
<path d="M22.6689 22.716C22.6689 19.0638 25.6841 16.1023 29.4027 16.1023C33.1212 16.1023 36.1364 19.0638 36.1364 22.716" stroke="#C7C7C7" stroke-width="2" stroke-miterlimit="10" stroke-linecap="round"/>
</svg>
