<svg width="67" height="65" viewBox="0 0 67 65" fill="none" xmlns="http://www.w3.org/2000/svg">
<path d="M0 15.5012C0 7.21695 6.71573 0.501221 15 0.501221H52C60.2843 0.501221 67 7.21695 67 15.5012V49.5012C67 57.7855 60.2843 64.5012 52 64.5012H15C6.71573 64.5012 0 57.7855 0 49.5012V15.5012Z" fill="white"/>
<path d="M40.2564 20.2021L19.5044 40.9808C19.2645 41.2195 19.419 41.6283 19.7574 41.6544L22.1826 41.8278C22.3897 41.8441 22.5507 42.0142 22.5507 42.2202V44.3818C22.5507 44.5714 22.6887 44.7382 22.876 44.7709L24.7688 45.1077C24.9594 45.1404 25.0942 45.3039 25.0942 45.4969V46.7461C25.0942 47.0993 25.5214 47.2759 25.7711 47.024L46.4574 26.3762L40.2564 20.2021Z" stroke="#C7C7C7" stroke-width="2" stroke-miterlimit="10"/>
<path d="M50.9822 21.7358C51.4586 21.291 51.4784 20.5454 51.0249 20.0778L46.6444 15.529C46.1975 15.0646 45.4549 15.0483 44.9849 15.493L42.54 17.769L48.6161 23.881L50.9822 21.7358Z" stroke="#C7C7C7" stroke-width="2" stroke-miterlimit="10"/>
<path d="M19.2613 44.8492C19.0477 44.6235 18.673 44.7118 18.581 45.0061L17.3652 48.9009C17.2699 49.205 17.5492 49.4928 17.8581 49.411L21.7719 48.358C22.0676 48.2796 22.1695 47.9133 21.9592 47.6909L19.2613 44.8492Z" stroke="#C7C7C7" stroke-width="2" stroke-miterlimit="10"/>
<path d="M34.2559 42.5437L42.606 51.2456C43.158 51.8212 44.0749 51.8342 44.6434 51.275L51.7415 44.3129C52.31 43.7569 52.3297 42.8544 51.7842 42.2723L43.2008 33.639" stroke="#C7C7C7" stroke-width="2" stroke-miterlimit="10"/>
<path d="M45.1167 45.4216L49.875 40.6864" stroke="#C7C7C7" stroke-width="2" stroke-miterlimit="10" stroke-linecap="round"/>
<path d="M43.769 40.8529L46.9468 37.6907" stroke="#C7C7C7" stroke-width="2" stroke-miterlimit="10" stroke-linecap="round"/>
<path d="M38.5576 39.5383L43.5854 34.5349" stroke="#C7C7C7" stroke-width="2" stroke-miterlimit="10" stroke-linecap="round"/>
<path d="M24.0063 32.1545L15.2619 23.845C14.6835 23.2956 14.6704 22.3833 15.2323 21.8175L22.2285 14.754C22.7872 14.1882 23.6941 14.1686 24.2791 14.7114L32.9545 23.2531" stroke="#C7C7C7" stroke-width="2" stroke-miterlimit="10"/>
<path d="M21.1182 21.3467L25.8732 16.6115" stroke="#C7C7C7" stroke-width="2" stroke-miterlimit="10" stroke-linecap="round"/>
<path d="M25.7056 22.6874L28.8833 19.5251" stroke="#C7C7C7" stroke-width="2" stroke-miterlimit="10" stroke-linecap="round"/>
<path d="M27.0264 27.8739L32.0542 22.8705" stroke="#C7C7C7" stroke-width="2" stroke-miterlimit="10" stroke-linecap="round"/>
</svg>
