<svg width="67" height="65" viewBox="0 0 67 65" fill="none" xmlns="http://www.w3.org/2000/svg">
<path d="M0 15.5012C0 7.21695 6.71573 0.501221 15 0.501221H52C60.2843 0.501221 67 7.21695 67 15.5012V49.5012C67 57.7855 60.2843 64.5012 52 64.5012H15C6.71573 64.5012 0 57.7855 0 49.5012V15.5012Z" fill="white"/>
<path d="M14.5581 31.0083C18.8871 20.6789 30.8745 15.7709 41.3358 20.0454C51.7971 24.3199 56.7677 36.1561 52.4418 46.4886" stroke="#C4C4C4" stroke-width="2" stroke-miterlimit="10" stroke-linecap="round"/>
<path d="M14.5642 46.5011C10.2258 36.1747 15.1902 24.3323 25.6483 20.0517C36.1065 15.7711 48.1001 20.6698 52.4354 30.9961" stroke="#C4C4C4" stroke-width="2" stroke-miterlimit="10" stroke-linecap="round"/>
<path d="M35.792 36.3619L40.7844 33.1914" stroke="#C4C4C4" stroke-width="2" stroke-miterlimit="10" stroke-linecap="round"/>
<path d="M33.5001 40.6828C35.0017 40.6828 36.219 39.4809 36.219 37.9982C36.219 36.5155 35.0017 35.3136 33.5001 35.3136C31.9985 35.3136 30.7812 36.5155 30.7812 37.9982C30.7812 39.4809 31.9985 40.6828 33.5001 40.6828Z" stroke="#C4C4C4" stroke-width="2" stroke-miterlimit="10" stroke-linecap="round"/>
<path d="M33.7271 18.5049V24.9658" stroke="#C4C4C4" stroke-width="2" stroke-miterlimit="10" stroke-linecap="round"/>
<path d="M24.1162 21.2078L27.2773 26.866" stroke="#C4C4C4" stroke-width="2" stroke-miterlimit="10" stroke-linecap="round"/>
<path d="M16.9434 26.9678L22.3811 30.5657" stroke="#C4C4C4" stroke-width="2" stroke-miterlimit="10" stroke-linecap="round"/>
<path d="M13.8169 34.6336L20.217 35.9897" stroke="#C4C4C4" stroke-width="2" stroke-miterlimit="10" stroke-linecap="round"/>
<path d="M14.312 43.5059L20.572 41.6208" stroke="#C4C4C4" stroke-width="2" stroke-miterlimit="10" stroke-linecap="round"/>
<path d="M42.7432 21.3524L39.582 27.0107" stroke="#C4C4C4" stroke-width="2" stroke-miterlimit="10" stroke-linecap="round"/>
<path d="M49.9156 27.112L44.481 30.7099" stroke="#C4C4C4" stroke-width="2" stroke-miterlimit="10" stroke-linecap="round"/>
<path d="M53.0425 34.7787L46.6455 36.1379" stroke="#C4C4C4" stroke-width="2" stroke-miterlimit="10" stroke-linecap="round"/>
<path d="M52.5476 43.6501L46.2876 41.765" stroke="#C4C4C4" stroke-width="2" stroke-miterlimit="10" stroke-linecap="round"/>
</svg>
